{"title":"Cars.2.2011.Cam.x264.Feel-Free ","uid":6497517,"size":1230808723,"categoryP":"video","categoryS":"movies","magnet":"?xt=urn:btih:b01d56b351ac94e918f8bee139a7bd4d9ae91aa6&amp;dn=Cars.2.2011.Cam.x264.Feel-Free+&amp;tr=udp%3A%2F%2Ftracker.openbittorrent.com%3A80&amp;tr=udp%3A%2F%2Fopen.demonii.com%3A1337&amp;tr=udp%3A%2F%2Ftracker.coppersurfer.tk%3A6969&amp;tr=udp%3A%2F%2Fexodus.desync.com%3A6969","seeders":0,"leechers":1,"uploader":"TPBAgri","files":-1,"time":1309125798,"description":"\nGenre:Animation | Adventure | Comedy\nLanguage:English\nIMDb:http://www.imdb.com/title/tt1216475/\nSource:RELIZLAB/IMAGINE/PhoneCAM-FU.Its.Free Thanks!\n\nFormat : MPEG-4\nFormat profile : Base Media\nCodec ID : isom\nFile size : 1.14 GiB\nDuration : 1h 34mn\nOverall bit rate : 1 733 Kbps\n\nVideo\nID : 1\nFormat : AVC\nFormat/Info : Advanced Video Codec\nFormat profile : &lt;a class=&quot;__cf_email__&quot; href=&quot;/cdn-cgi/l/email-protection&quot; data-cfemail=&quot;0c44656b644c4038223d&quot;&gt;[email&amp;#160;protected]&lt;/a&gt;&lt;script cf-hash='f9e31' type=&quot;text/javascript&quot;&gt;\n/* &lt;![CDATA[ */!function(){try{var t=&quot;currentScript&quot;in document?document.currentScript:function(){for(var t=document.getElementsByTagName(&quot;script&quot;),e=t.length;e--;)if(t[e].getAttribute(&quot;cf-hash&quot;))return t[e]}();if(t&amp;&amp;t.previousSibling){var e,r,n,i,c=t.previousSibling,a=c.getAttribute(&quot;data-cfemail&quot;);if(a){for(e=&quot;&quot;,r=parseInt(a.substr(0,2),16),n=2;a.length-n;n+=2)i=parseInt(a.substr(n,2),16)^r,e+=String.fromCharCode(i);e=document.createTextNode(e),c.parentNode.replaceChild(e,c)}}}catch(u){}}();/* ]]&gt; */&lt;/script&gt;\nFormat settings, CABAC : Yes\nFormat settings, ReFrames : 3 frames\nCodec ID : avc1\nCodec ID/Info : Advanced Video Coding\nDuration : 1h 34mn\nBit rate mode : Variable\nBit rate : 1 500 Kbps\nMaximum bit rate : 5 192 Kbps\nWidth : 720 pixels\nHeight : 304 pixels\nDisplay aspect ratio : 2.35:1\nFrame rate mode : Constant\nFrame rate : 25.000 fps\nColor space : YUV\nChroma subsampling : 4:2:0\nBit depth : 8 bits\nScan type : Progressive\nBits/(Pixel*Frame) : 0.274\nStream size : 1 018 MiB (87%)\nWriting library : x264\n\nAudio\nID : 2\nFormat : AAC\nFormat/Info : Advanced Audio Codec\nFormat version : Version 4\nFormat profile : LC\nFormat settings, SBR : No\nCodec ID : 40\nDuration : 1h 34mn\nBit rate mode : Variable\nBit rate : 224 Kbps\nMaximum bit rate : 260 Kbps\nChannel(s) : 2 channels\nChannel positions : Front: L R\nSampling rate : 44.1 KHz\nStream size : 151 MiB (13%)\n\nPlot:\nStar race car Lightning McQueen and his pal Mater head overseas to compete in the World Grand Prix race. But the road to the championship becomes rocky as Mater gets caught up in an intriguing adventure of his own: international espionage.\n\n\n &lt;a href=&quot;\nhttp://leetleech.org/images/62632221209244645413.png&quot; rel=&quot;nofollow&quot; target=&quot;_NEW&quot;&gt;\nhttp://leetleech.org/images/62632221209244645413.png&lt;/a&gt;\n &lt;a href=&quot;\nhttp://leetleech.org/images/89965922498375363369.png&quot; rel=&quot;nofollow&quot; target=&quot;_NEW&quot;&gt;\nhttp://leetleech.org/images/89965922498375363369.png&lt;/a&gt;\n &lt;a href=&quot;\nhttp://leetleech.org/images/28127503127070675953.png&quot; rel=&quot;nofollow&quot; target=&quot;_NEW&quot;&gt;\nhttp://leetleech.org/images/28127503127070675953.png&lt;/a&gt;\n &lt;a href=&quot;\nhttp://leetleech.org/images/34135274856844445113.png&quot; rel=&quot;nofollow&quot; target=&quot;_NEW&quot;&gt;\nhttp://leetleech.org/images/34135274856844445113.png&lt;/a&gt;\n &lt;a href=&quot;\nhttp://leetleech.org/images/10398584938355810460.png&quot; rel=&quot;nofollow&quot; target=&quot;_NEW&quot;&gt;\nhttp://leetleech.org/images/10398584938355810460.png&lt;/a&gt;\n\n","torrent":{"xt":"urn:btih:b01d56b351ac94e918f8bee139a7bd4d9ae91aa6","amp;dn":"Cars.2.2011.Cam.x264.Feel-Free+","amp;tr":["udp%3A%2F%2Ftracker.openbittorrent.com%3A80","udp%3A%2F%2Fopen.demonii.com%3A1337","udp%3A%2F%2Ftracker.coppersurfer.tk%3A6969","udp%3A%2F%2Fexodus.desync.com%3A6969"],"infoHash":"b01d56b351ac94e918f8bee139a7bd4d9ae91aa6","infoHashBuffer":{"type":"Buffer","data":[176,29,86,179,81,172,148,233,24,248,190,225,57,167,189,77,154,233,26,166]},"announce":[],"urlList":[]}}